<svg xmlns="http://www.w3.org/2000/svg" xmlns:xlink="http://www.w3.org/1999/xlink" width="61.241" height="61.514" viewBox="0 0 61.241 61.514">
  <defs>
    <linearGradient id="linear-gradient" x1="0.5" y1="1" x2="0.5" gradientUnits="objectBoundingBox">
      <stop offset="0" stop-color="#0FBCB9"/>
      <stop offset="1" stop-color="#1ef4f0" />
      <!-- <stop offset="1" stop-color="#195E35" stop-opacity="0.388"/> -->
    </linearGradient>
  </defs>
  <g id="btn-flut" transform="translate(0 -0.006)">
    <path id="Caminho_190" data-name="Caminho 190" d="M52.322,8.94a30.5,30.5,0,0,0-48,36.783L0,61.52l16.166-4.239a30.474,30.474,0,0,0,14.572,3.711h.013A30.5,30.5,0,0,0,52.322,8.94ZM30.751,55.84h-.01a25.317,25.317,0,0,1-12.9-3.533l-.924-.548L7.322,54.278l2.561-9.35-.6-.959A25.347,25.347,0,1,1,30.751,55.844Z" fill="#131313"/>
    <path id="Caminho_191" data-name="Caminho 191" d="M27.875,79.787,32,64.712a29.1,29.1,0,1,1,25.217,14.57H57.2a29.085,29.085,0,0,1-13.9-3.536Z" transform="translate(-26.475 -20.019)" fill="url(#linear-gradient)"/>
    <path id="Caminho_192" data-name="Caminho 192" d="M315.072,324.347c-.564-1.254-1.158-1.279-1.7-1.3-.439-.019-.942-.018-1.443-.018a2.767,2.767,0,0,0-2.008.942,8.443,8.443,0,0,0-2.637,6.281c0,3.706,2.7,7.287,3.076,7.79s5.211,8.35,12.867,11.369c6.363,2.509,7.657,2.01,9.038,1.884s4.456-1.822,5.084-3.581a6.293,6.293,0,0,0,.439-3.581c-.188-.314-.691-.5-1.444-.879s-4.456-2.2-5.147-2.45-1.193-.377-1.7.377-1.945,2.449-2.384,2.952-.879.566-1.632.19a20.6,20.6,0,0,1-6.057-3.738,22.688,22.688,0,0,1-4.19-5.216c-.439-.753-.047-1.161.331-1.537.338-.337.753-.879,1.13-1.319a5.161,5.161,0,0,0,.753-1.256,1.387,1.387,0,0,0-.063-1.319C317.206,329.561,315.742,325.836,315.072,324.347Z" transform="translate(-291.857 -306.805)" fill="#131313" fill-rule="evenodd"/>
    <path id="Caminho_193" data-name="Caminho 193" d="M58.721,8.952A30.148,30.148,0,0,0,11.277,45.313L7,60.928l15.98-4.19a30.124,30.124,0,0,0,14.4,3.668h.02A30.146,30.146,0,0,0,58.721,8.952ZM37.4,55.317h-.01a25.026,25.026,0,0,1-12.754-3.493l-.913-.542L14.24,53.768l2.532-9.242-.6-.947A25.056,25.056,0,1,1,37.4,55.317Z" transform="translate(-6.648 -0.108)" fill="#131313"/>
  </g>
</svg>
