<svg xmlns="http://www.w3.org/2000/svg" width="44.961" height="53.825" viewBox="0 0 44.961 53.825">
  <g id="estetica" transform="translate(-52.146 -27.801)">
    <path id="Caminho_216" data-name="Caminho 216" d="M91.272,135.3a35.715,35.715,0,0,1-.876,3.563,2.143,2.143,0,0,1-.778,1.218,1.874,1.874,0,0,1-.942.216,1.154,1.154,0,0,0,.056,2.307,3.581,3.581,0,0,0,3.516-2.194,23.616,23.616,0,0,0,1.282-4.635,4.167,4.167,0,0,0,.117-1.546,1.626,1.626,0,0,0-.658-1.1,1.82,1.82,0,0,0-1.278-.3,11.1,11.1,0,0,0-2.756.923,1.154,1.154,0,0,0,.908,2.121c.554-.237,1.021-.431,1.41-.568Zm-36.721,0c.388.137.856.331,1.41.568a1.154,1.154,0,0,0,.908-2.121,11.093,11.093,0,0,0-2.756-.923,1.82,1.82,0,0,0-1.278.3,1.626,1.626,0,0,0-.657,1.1,4.165,4.165,0,0,0,.116,1.546,23.616,23.616,0,0,0,1.282,4.635,3.581,3.581,0,0,0,3.516,2.194,1.154,1.154,0,0,0,.056-2.307,1.873,1.873,0,0,1-.942-.216,2.143,2.143,0,0,1-.778-1.218A35.559,35.559,0,0,1,54.551,135.3Z" transform="translate(0 -75.938)" fill="#fff" fill-rule="evenodd"/>
    <path id="Caminho_217" data-name="Caminho 217" d="M96.339,119.4a86.811,86.811,0,0,1-.862,9.427c-.467,3.034-1.156,6.1-2.264,7.86-3.3,5.244-6.519,7.831-12.2,8.058-5.7-.223-8.852-2.858-12.224-8.069-1.136-1.756-1.835-4.7-2.3-7.585a75.816,75.816,0,0,1-.844-8.916,1.154,1.154,0,1,0-2.306.06A73.694,73.694,0,0,0,64.651,131.8a19.337,19.337,0,0,0,2.206,6.129c3.869,5.981,7.565,8.881,14.108,9.124h.086c6.547-.243,10.316-3.1,14.115-9.136a20.072,20.072,0,0,0,2.16-6.3,83.635,83.635,0,0,0,1.32-12.155,1.154,1.154,0,0,0-2.306-.065Z" transform="translate(-8.096 -65.424)" fill="#fff" fill-rule="evenodd"/>
    <path id="Caminho_218" data-name="Caminho 218" d="M66.9,33.929C56.7,37.02,55,45.732,55.64,52.108a22.236,22.236,0,0,0,.91,4.494,1.154,1.154,0,0,0,2.077.258,10.373,10.373,0,0,1,4.984-3.727c3.483-1.476,7.763-2.272,11.327-3.363a18.207,18.207,0,0,0,5.421-2.45,7.17,7.17,0,0,0,1.6-1.589q.143.232.294.45a1.154,1.154,0,1,0,1.9-1.31,8.63,8.63,0,0,1-1.2-2.6,1.153,1.153,0,0,0-2.263.267,3.734,3.734,0,0,1-1.7,2.932,15.9,15.9,0,0,1-4.723,2.1c-3.637,1.113-8,1.939-11.552,3.445a15.254,15.254,0,0,0-4.5,2.773q-.182-.945-.278-1.9c-.571-5.687.948-13.566,10.547-15.993a1.086,1.086,0,0,0,.828-1.43h0A2.664,2.664,0,0,1,70.652,31.5a8.614,8.614,0,0,1,9.4,0c1.02.715.536,1.706.188,2.951-.1.347,1.127.72,1.345,1.008a1.151,1.151,0,0,0,.645.423l-.009,0a17.061,17.061,0,0,1,3.862,1.459,1.154,1.154,0,1,0,1.086-2.036A18.624,18.624,0,0,0,83.8,33.93,4.669,4.669,0,0,0,82.319,30.4a10.441,10.441,0,0,0-6.954-2.6H75.34a10.441,10.441,0,0,0-6.954,2.6A4.669,4.669,0,0,0,66.9,33.929Zm-.838,25.066a4.517,4.517,0,0,1,4.694-.006,1.154,1.154,0,0,0,1.287-1.915,6.977,6.977,0,0,0-7.249-.006,1.154,1.154,0,0,0,1.268,1.927Zm13.869,0a4.518,4.518,0,0,1,4.694-.006,1.154,1.154,0,1,0,1.287-1.915,6.977,6.977,0,0,0-7.249-.006,1.154,1.154,0,1,0,1.268,1.927ZM71.285,74.449a8.864,8.864,0,0,0,8.182-.025,1.154,1.154,0,1,0-1.086-2.036,6.623,6.623,0,0,1-6.11-.025,1.154,1.154,0,1,0-.986,2.086Z" transform="translate(-2.441)" fill="#fff" fill-rule="evenodd"/>
    <path id="Caminho_219" data-name="Caminho 219" d="M158.675,68.314s3.179.1,6.28-3.915c2.375-3.076,2.7-7.4,2.7-14.206a1.154,1.154,0,0,0-1.082-1.152c-4.781-.3-7.029-2.757-7.029-2.757a1.154,1.154,0,0,0-1.73,0s-2.247,2.461-7.027,2.757a1.154,1.154,0,0,0-1.082,1.152c0,6.8.32,11.13,2.7,14.206,3.1,4.015,6.28,3.915,6.28,3.915h0Zm.012-2.307h-.014s-2.2-.1-4.452-3.018c-2.009-2.6-2.2-6.231-2.213-11.746a13.412,13.412,0,0,0,6.667-2.643,13.408,13.408,0,0,0,6.667,2.643c-.015,5.515-.2,9.145-2.213,11.746h0c-2.154,2.79-4.259,3-4.441,3.017Z" transform="translate(-70.544 -13.083)" fill="#fff" fill-rule="evenodd"/>
    <path id="Caminho_220" data-name="Caminho 220" d="M166.62,79.624l2.338,2.469a1.153,1.153,0,0,0,1.667.008l4.083-4.226a1.154,1.154,0,0,0-1.66-1.6L169.8,79.631,168.3,78.037a1.154,1.154,0,1,0-1.675,1.587Z" transform="translate(-82.551 -34.796)" fill="#fff" fill-rule="evenodd"/>
  </g>
</svg>
