<svg xmlns="http://www.w3.org/2000/svg" xmlns:xlink="http://www.w3.org/1999/xlink" width="28" height="28" viewBox="0 0 28 28">
  <defs>
    <linearGradient id="linear-gradient" x1="0.5" x2="0.5" y2="1" gradientUnits="objectBoundingBox">
      <stop offset="1" stop-color="#0FBCB9"/>
    </linearGradient>
  </defs>
  <g id="facebook" transform="translate(0.103)">
    <circle id="Elipse_5" data-name="Elipse 5" cx="14" cy="14" r="14" transform="translate(-0.103 0)" fill="url(#linear-gradient)"/>
    <path id="facebook_fb_face_book" data-name="facebook fb face book" d="M14.579,3H5.757A2.757,2.757,0,0,0,3,5.757v8.822a2.757,2.757,0,0,0,2.757,2.757h4.411a.551.551,0,0,0,.551-.551V12.373a.551.551,0,0,0-.551-.551H9.616v-1.1h.551a.551.551,0,0,0,.551-.551V8.238A1.378,1.378,0,0,1,12.1,6.86h1.378v1.1h-.551a1.1,1.1,0,0,0-1.1,1.1v1.1a.551.551,0,0,0,.551.551h.948l-.276,1.1h-.673a.551.551,0,0,0-.551.551v2.205a.551.551,0,0,0,1.1,0V12.924h.551a.551.551,0,0,0,.551-.419l.551-2.205a.548.548,0,0,0-.551-.684h-1.1V9.065h1.1a.551.551,0,0,0,.551-.551V6.308a.551.551,0,0,0-.551-.551H12.1A2.487,2.487,0,0,0,9.616,8.238V9.616H9.065a.551.551,0,0,0-.551.551v2.205a.551.551,0,0,0,.551.551h.551v3.308H5.757A1.654,1.654,0,0,1,4.1,14.579V5.757A1.654,1.654,0,0,1,5.757,4.1h8.822a1.654,1.654,0,0,1,1.654,1.654v8.822a1.654,1.654,0,0,1-1.654,1.654H12.373a.551.551,0,0,0,0,1.1h2.205a2.757,2.757,0,0,0,2.757-2.757V5.757A2.757,2.757,0,0,0,14.579,3Z" transform="translate(3.729 3.832)" fill="#131313"/>
  </g>
</svg>
