<svg xmlns="http://www.w3.org/2000/svg" width="100" height="100" viewBox="0 0 100 100">
  <g id="favicon" transform="translate(363 -6331)">
    <circle id="Elipse_13" data-name="Elipse 13" cx="50" cy="50" r="50" transform="translate(-363 6331)" fill="#131313"/>
    <g id="_135347212_150473619969565_1615180252182476327_n" data-name="135347212_150473619969565_1615180252182476327_n" transform="translate(-340.996 6350.004)">
      <path id="Caminho_4501" data-name="Caminho 4501" d="M-273.884,1663.665c-.052.206-.249.25-.4.335a21.526,21.526,0,0,1-7.335,2.547,38.909,38.909,0,0,1-9.536.277c-.6-.048-.651-.006-.662.6q-.082,4.807-.153,9.613-.116,7.749-.232,15.5c-.011.652-.061,1.3-.094,1.966-.174-.042-.219-.157-.275-.259a74.3,74.3,0,0,1-3.945-7.542,56.327,56.327,0,0,1-2.09-5.968,83.885,83.885,0,0,1-2.319-10.879c-.2-1.315-.336-2.641-.483-3.963-.09-.794-.071-.8-.852-1a114.913,114.913,0,0,1-11.637-3.65c-.954-.353-1.9-.735-2.841-1.11-.2-.077-.478-.1-.393-.431.09-.352.36-.255.583-.2,2.158.5,4.334.889,6.509,1.3,2.572.481,5.152.917,7.746,1.271.367.05.489-.032.462-.412-.293-4.108-.45-8.222-.389-12.342.022-1.572.1-3.147.157-4.713.007-.225-.008-.484.336-.454.326.028.251.291.249.484-.019,2.126-.013,4.254.1,6.377.106,2,.214,4.005.411,6,.136,1.385.265,2.77.4,4.155.029.281.09.56.13.842.046.315.3.36.533.382,1.415.135,2.832.245,4.247.386.43.042.565-.136.557-.529-.016-.883-.017-1.767-.03-2.651q-.083-5.594-.166-11.187c-.068-4.837-.105-9.675-.212-14.511-.035-1.6-.04-3.2-.076-4.8a.466.466,0,0,1,.428-.547,36.458,36.458,0,0,1,9.826-1.1,26.446,26.446,0,0,1,8.063,1.392,16.238,16.238,0,0,1,8.991,7.291,18.5,18.5,0,0,1,2.2,6.51,24.274,24.274,0,0,1,.36,4.871,24.414,24.414,0,0,1-2.184,9.647,15.5,15.5,0,0,1-3.417,4.614,9.583,9.583,0,0,1-2.575,1.9,1.077,1.077,0,0,1,.521-.53,13.853,13.853,0,0,0,2.019-1.672,15.433,15.433,0,0,0,1.612-1.826,14.617,14.617,0,0,0,1.528-2.41,21.233,21.233,0,0,0,1.741-5.182,35.866,35.866,0,0,0,.475-4.2,21.378,21.378,0,0,0-.318-5.118,27.561,27.561,0,0,0-.867-3.588,14.808,14.808,0,0,0-1.518-3.223,13.484,13.484,0,0,0-1.665-2.259c-.5-.531-1.053-1.006-1.536-1.548a6.7,6.7,0,0,0-1.34-1,13.923,13.923,0,0,0-2.732-1.486,14.965,14.965,0,0,0-2.188-.846c-1.143-.253-2.257-.613-3.432-.754a21.822,21.822,0,0,0-2.7-.307,39.229,39.229,0,0,0-5.6.134c-.67.1-1.357.18-2.031.264a20.846,20.846,0,0,0-3.086.656c-.27.078-.381.2-.352.471.017.148.05.3.054.445.073,3.367-.027,6.734.154,10.1.218,4.078-.043,8.164.173,12.251.18,3.436.046,6.89.058,10.34,0,.417-.151.6-.586.578-.788-.035-1.571-.049-2.359-.162a11.223,11.223,0,0,0-2.447-.225c-.2.015-.328-.09-.36-.317-.151-1.1-.18-2.219-.35-3.327-.1-.644-.1-1.306-.161-1.958-.129-1.5-.27-2.993-.36-4.489-.072-1.182-.085-2.376-.148-3.561s-.029-2.365-.073-3.545c0-.1.055-.246-.12-.3a.428.428,0,0,0-.047.128q-.024,3.615-.044,7.232c0,.644.019,1.287.024,1.931a17.7,17.7,0,0,1-.01,1.978,11.918,11.918,0,0,0,.158,1.844,18.523,18.523,0,0,0,.2,3.49c.078.331-.09.539-.459.559a13.783,13.783,0,0,1-2.576-.258c-.874-.115-1.753-.291-2.626-.449-.931-.164-1.863-.36-2.813-.439a6.773,6.773,0,0,1-1.176-.215,12.456,12.456,0,0,0-1.725-.432c-.944-.121-1.867-.329-2.787-.54a.446.446,0,0,0-.45.051c0,.09.06.112.113.132.676.27,1.341.554,2.036.786,1.012.339,2.016.709,3.02,1.07,1.141.408,2.3.761,3.439,1.169a16.161,16.161,0,0,0,1.56.51c.809.2,1.572.561,2.393.7a11.586,11.586,0,0,0,1.776.425.524.524,0,0,1,.512.422,21.924,21.924,0,0,1,.319,2.342,17.572,17.572,0,0,1,.245,2c.112.989.311,1.964.509,2.939.08.4.106.8.211,1.186.258.945.391,1.916.617,2.868.222.933.434,1.88.646,2.819a37.324,37.324,0,0,0,1.138,3.7c.343,1.016.751,2.01,1.128,3.015a30.123,30.123,0,0,0,2.219,4.571c.311.539.549,1.112.874,1.637a12.506,12.506,0,0,0,.941,1.547c.141-.146.1-.289.1-.416.1-2.375-.005-4.748.137-7.127.231-3.88-.053-7.774.191-11.663.15-2.388.04-4.792.047-7.193,0-.687.379-.982,1.055-.8a2.122,2.122,0,0,0,.569.113,49.831,49.831,0,0,0,8.362-.311,33.842,33.842,0,0,0,4.11-.951,15.792,15.792,0,0,0,3.4-1.582A.953.953,0,0,1-273.884,1663.665Z" transform="translate(317.14 -1627.43)" fill="#03aa9d"/>
      <path id="Caminho_4502" data-name="Caminho 4502" d="M-264.461,1666.271a.978.978,0,0,0-.663.2,15.873,15.873,0,0,1-3.4,1.582,33.842,33.842,0,0,1-4.11.951,49.835,49.835,0,0,1-8.362.311,2.122,2.122,0,0,1-.569-.113c-.675-.18-1.053.118-1.055.8-.006,2.4.1,4.8-.047,7.193-.244,3.89.04,7.784-.191,11.663-.142,2.379-.034,4.753-.137,7.127-.005.128.04.27-.1.416a12.177,12.177,0,0,1-.941-1.547c-.325-.525-.563-1.1-.874-1.637a30.119,30.119,0,0,1-2.219-4.571c-.378-1-.786-2-1.128-3.015a37.625,37.625,0,0,1-1.138-3.7c-.211-.939-.424-1.888-.646-2.819-.226-.952-.36-1.923-.617-2.868-.105-.383-.131-.79-.211-1.186-.2-.975-.4-1.953-.509-2.939a17.558,17.558,0,0,0-.245-2,21.909,21.909,0,0,0-.319-2.342.529.529,0,0,0-.512-.422,11.713,11.713,0,0,1-1.776-.425c-.821-.14-1.581-.5-2.393-.7a16.192,16.192,0,0,1-1.56-.51c-1.14-.406-2.3-.759-3.439-1.169-1-.36-2.009-.731-3.02-1.07-.694-.232-1.359-.52-2.036-.786-.053-.021-.112-.043-.113-.132a.437.437,0,0,1,.45-.051,27.6,27.6,0,0,0,2.787.539,12.722,12.722,0,0,1,1.725.432,6.773,6.773,0,0,0,1.176.215c.95.083,1.883.275,2.813.439.873.155,1.752.331,2.626.45a13.793,13.793,0,0,0,2.576.258c.373-.022.539-.228.459-.559a18.83,18.83,0,0,1-.2-3.49,11.888,11.888,0,0,1-.158-1.844,17.687,17.687,0,0,0,.01-1.978c-.005-.644-.027-1.287-.024-1.931q.016-3.617.044-7.232a.428.428,0,0,1,.047-.128c.175.05.117.193.12.3.044,1.181.01,2.362.073,3.545s.076,2.379.148,3.561c.09,1.5.228,2.994.36,4.489.057.653.062,1.315.161,1.958.169,1.1.2,2.22.35,3.327a.315.315,0,0,0,.36.317,11.18,11.18,0,0,1,2.447.225c.789.112,1.572.127,2.359.162.435.02.588-.161.586-.578-.013-3.445.122-6.9-.058-10.34-.216-4.087.046-8.174-.173-12.251-.18-3.369-.081-6.735-.154-10.1a3.958,3.958,0,0,0-.054-.445c-.03-.27.079-.393.352-.471a20.846,20.846,0,0,1,3.086-.656c.674-.09,1.361-.163,2.031-.264a39.229,39.229,0,0,1,5.6-.134,21.729,21.729,0,0,1,2.7.307c1.175.141,2.289.5,3.432.754a14.965,14.965,0,0,1,2.188.846,13.93,13.93,0,0,1,2.732,1.486,6.7,6.7,0,0,1,1.34,1c.483.539,1.039,1.018,1.536,1.548a13.484,13.484,0,0,1,1.665,2.259,14.851,14.851,0,0,1,1.518,3.223,27.545,27.545,0,0,1,.867,3.588,21.364,21.364,0,0,1,.318,5.118,35.866,35.866,0,0,1-.475,4.2,21.234,21.234,0,0,1-1.741,5.182,14.512,14.512,0,0,1-1.529,2.41,15.44,15.44,0,0,1-1.608,1.827,13.849,13.849,0,0,1-2.021,1.672,1.092,1.092,0,0,0-.521.53Zm-23,15.886a1.86,1.86,0,0,0,.228,1.252c.548,1.241.841,2.58,1.494,3.776.111.2.18.539.456.465.257-.066.148-.389.144-.6-.073-2.956.019-5.912-.138-8.871-.153-2.873-.046-5.75-.055-8.627,0-.6-.18-.864-.743-.916a14.464,14.464,0,0,1-1.5-.209c-.742-.146-1.5-.246-2.226-.436-.771-.2-.953-.09-.91.709a1.563,1.563,0,0,0,.033.312c.31,1.176.373,2.4.69,3.574.13.483.076.989.222,1.45.36,1.134.475,2.32.825,3.457.432,1.4.756,2.836,1.132,4.255a.432.432,0,0,0,.321.342A.072.072,0,0,1-287.458,1682.157Zm5.311-31.955h0q-.112,7.412-.234,14.825c-.008.431.111.568.549.559,1.556-.031,3.112-.034,4.666-.18a23.941,23.941,0,0,0,8.131-2.059,11.668,11.668,0,0,0,5.835-5.883,16.071,16.071,0,0,0,1.29-4.971,22.786,22.786,0,0,0-.51-8.552,11.309,11.309,0,0,0-4.014-6.155,16.507,16.507,0,0,0-8.489-3.073,29.835,29.835,0,0,0-6.322-.006c-.667.066-.66.059-.67.719Q-282.029,1642.812-282.147,1650.2Z" transform="translate(307.717 -1630.036)" fill="#03aa9d"/>
      <path id="Caminho_4503" data-name="Caminho 4503" d="M-124.776,2062.919c.411,1.119.817,2.241,1.234,3.359a8.832,8.832,0,0,0,.9,1.879v-.854q-.132-8.578-.261-17.154c0-.341-.146-.469-.471-.513-1.319-.18-2.622-.45-3.925-.725-.585-.123-.629-.109-.525.492.27,1.575.534,3.151.84,4.719a76.3,76.3,0,0,0,2.1,8.339,3.581,3.581,0,0,1,.079.394.432.432,0,0,1-.321-.342c-.376-1.419-.7-2.854-1.132-4.256-.351-1.137-.463-2.323-.825-3.457-.146-.458-.09-.968-.222-1.45-.316-1.169-.379-2.4-.69-3.574a1.564,1.564,0,0,1-.033-.312c-.043-.8.138-.909.91-.709.731.19,1.484.29,2.226.436a14.519,14.519,0,0,0,1.5.211c.564.052.741.32.743.916.008,2.877-.1,5.754.055,8.623.157,2.959.066,5.914.138,8.871,0,.208.113.532-.144.6-.281.072-.344-.26-.456-.465-.654-1.2-.947-2.534-1.494-3.776A1.875,1.875,0,0,1-124.776,2062.919Z" transform="translate(145.035 -2010.798)" fill="#03aa9d"/>
    </g>
  </g>
</svg>
