<svg xmlns="http://www.w3.org/2000/svg" width="203.481" height="13.301" viewBox="0 0 203.481 13.301">
  <g id="instagram" transform="translate(-120.082 -3317)">
    <path id="Caminho_105" data-name="Caminho 105" d="M7.58,14.33A2.135,2.135,0,0,1,6.061,13.7L1.2,8.843a4.117,4.117,0,0,1,0-5.813,4.11,4.11,0,0,1,5.814,0l.565.564.506-.506a4.162,4.162,0,0,1,5.856-.075,4.11,4.11,0,0,1,.016,5.829L9.1,13.7a2.133,2.133,0,0,1-1.519.63m-3.473-11a2.579,2.579,0,0,0-1.84.762,2.608,2.608,0,0,0,0,3.682l4.859,4.858a.657.657,0,0,0,.908,0l4.858-4.858a2.6,2.6,0,0,0-.01-3.692,2.653,2.653,0,0,0-3.731.07l-1.57,1.57L5.949,4.1a2.581,2.581,0,0,0-1.841-.763" transform="translate(120.082 3315.717)" fill="#0FBCB9"/>
    <path id="Caminho_106" data-name="Caminho 106" d="M354.141,12.833a6.4,6.4,0,0,0,3.095-.8l2.393.72a1.246,1.246,0,0,0,1.457-1.783l-1.067-1.986a6.339,6.339,0,0,0,.536-2.569,6.413,6.413,0,1,0-6.413,6.414m2.9-2.341-.273.17a4.992,4.992,0,1,1,1.819-1.976l-.17.332,1.21,2.254Z" transform="translate(-203.458 3316.994)" fill="#0FBCB9"/>
    <path id="Caminho_107" data-name="Caminho 107" d="M301.237,12.835a1.9,1.9,0,0,1-1.6-.87l-2.651-3.452-2.65,3.452a1.922,1.922,0,0,1-3.528-1.054V3.1a3.1,3.1,0,0,1,3.1-3.1h6.166a3.1,3.1,0,0,1,3.1,3.1v7.815a1.906,1.906,0,0,1-1.389,1.846,1.95,1.95,0,0,1-.541.077M296.99,6.962a1.214,1.214,0,0,1,.97.478l2.865,3.736a.5.5,0,0,0,.92-.265V3.1a1.674,1.674,0,0,0-1.672-1.673h-6.166A1.674,1.674,0,0,0,292.234,3.1v7.815a.5.5,0,0,0,.919.265l.038-.054,2.827-3.682a1.215,1.215,0,0,1,.971-.478" transform="translate(20.396 3317)" fill="#0FBCB9"/>
    <path id="Caminho_108" data-name="Caminho 108" d="M185.361,1.194a2.379,2.379,0,0,0-2.32-.622l-8.492,2.275a2.4,2.4,0,0,0-1.077,4.019l.082.082,4.036,2.018L179.607,13l.082.081a2.374,2.374,0,0,0,1.687.706,2.453,2.453,0,0,0,.633-.084,2.377,2.377,0,0,0,1.7-1.7l2.276-8.492a2.378,2.378,0,0,0-.622-2.32M174.224,4.915a.97.97,0,0,1,.692-.692l8.492-2.275a.973.973,0,0,1,.222-.03l-5.652,5.652L174.41,5.786a.968.968,0,0,1-.186-.871m8.107,6.723a.979.979,0,0,1-1.562.506l-1.784-3.569,5.652-5.652a1.009,1.009,0,0,1-.03.222Z" transform="translate(-6.815 3316.512)" fill="#0FBCB9"/>
  </g>
</svg>
