<svg xmlns="http://www.w3.org/2000/svg" xmlns:xlink="http://www.w3.org/1999/xlink" width="28" height="28" viewBox="0 0 28 28">
  <defs>
    <linearGradient id="linear-gradient" x1="0.5" x2="0.5" y2="1" gradientUnits="objectBoundingBox">
      <stop offset="1" stop-color="#0FBCB9"/>
    </linearGradient>
  </defs>
  <g id="insta" transform="translate(0)">
    <circle id="Elipse_4" data-name="Elipse 4" cx="14" cy="14" r="14" transform="translate(0 0)" fill="url(#linear-gradient)"/>
    <path id="af2da8f3726c5aa836b9ea2eeab70e0c" d="M13,4.48h0a.86.86,0,1,0,.86.86A.86.86,0,0,0,13,4.48Zm3.3,1.735a5.44,5.44,0,0,0-.33-1.742A3.541,3.541,0,0,0,15.131,3.2a3.369,3.369,0,0,0-1.269-.824,5.232,5.232,0,0,0-1.742-.337C11.361,2,11.117,2,9.168,2s-2.193,0-2.953.043a5.232,5.232,0,0,0-1.742.337A3.426,3.426,0,0,0,3.2,3.2,3.369,3.369,0,0,0,2.38,4.473a5.232,5.232,0,0,0-.337,1.742C2,6.974,2,7.218,2,9.168s0,2.193.043,2.953a5.232,5.232,0,0,0,.337,1.742A3.369,3.369,0,0,0,3.2,15.131a3.426,3.426,0,0,0,1.269.824,5.232,5.232,0,0,0,1.742.337c.76.043,1,.043,2.953.043s2.193,0,2.953-.043a5.232,5.232,0,0,0,1.742-.337,3.369,3.369,0,0,0,1.269-.824,3.476,3.476,0,0,0,.831-1.269,5.44,5.44,0,0,0,.33-1.742c0-.76.043-1,.043-2.953S16.335,6.974,16.292,6.215ZM15,12.035a4.021,4.021,0,0,1-.244,1.333,2.193,2.193,0,0,1-.538.824,2.286,2.286,0,0,1-.824.538,4.021,4.021,0,0,1-1.333.244c-.717.036-.982.043-2.867.043s-2.15,0-2.867-.043a4.107,4.107,0,0,1-1.391-.215,2.344,2.344,0,0,1-.788-.538,2.15,2.15,0,0,1-.53-.824,3.971,3.971,0,0,1-.287-1.362c0-.717-.043-.982-.043-2.867s0-2.15.043-2.867a3.971,3.971,0,0,1,.251-1.362A2.15,2.15,0,0,1,4.15,4.15a2.251,2.251,0,0,1,.788-.573A4.107,4.107,0,0,1,6.3,3.333c.717,0,.982-.043,2.867-.043s2.15,0,2.867.043a4.021,4.021,0,0,1,1.333.244,2.193,2.193,0,0,1,.853.573,2.193,2.193,0,0,1,.538.788A4.021,4.021,0,0,1,15,6.3c.036.717.043.982.043,2.867S15.038,11.318,15,12.035ZM9.168,5.491a3.67,3.67,0,1,0,2.607,1.072A3.677,3.677,0,0,0,9.168,5.491Zm0,6.064a2.387,2.387,0,1,1,2.387-2.387,2.387,2.387,0,0,1-2.387,2.387Z" transform="translate(4.832 4.832)" fill="#131313"/>
  </g>
</svg>
