<svg preserveAspectRatio="xMidYMid meet" data-bbox="0 0.001 233.35 126.428" viewBox="0 0.001 233.35 126.428" xmlns="http://www.w3.org/2000/svg" data-type="color" role="presentation" aria-hidden="true" aria-label="">
    <g>
        <path d="M95.61 36.14c0-3.27-.07-8.71-2.52-15.16-.69-1.81-1.7-4.43-3.72-7.29-4.96-7.04-11.98-9.87-15.22-11.13C66.69-.33 60.32-.1 54.3.12c-5.9.21-10.74 1.15-14.05 1.96l.72 48.84.15 14.78c-3.33-.3-6.65-.59-9.98-.89-.68-5.2-1.24-10.77-1.59-16.67-.36-6.06-.47-11.79-.41-17.15-.33 0-.65-.01-.98-.02-.29 6.09-.39 12.57-.23 19.38.12 4.9.36 9.62.69 14.12-3.76-.53-7.59-1.14-11.49-1.8-5.8-.99-11.42-2.07-16.83-3.21l-.3.95c3.54 1.49 7.31 2.95 11.32 4.33 6.31 2.18 12.31 3.87 17.89 5.18.31 3.58.85 8.39 1.87 14.01.87 4.82 2.12 11.57 4.94 19.67 1.93 5.54 5.05 13.02 10.19 21.32.31-17.31.63-34.62.94-51.94a67 67 0 0 0 11.34.42c2.99-.14 6.65-.31 10.85-1.4 3.17-.82 12.8-3.32 19.3-11.98 2.91-3.87 4.13-7.56 4.92-9.92 2.01-6.06 2.04-11.05 2.04-13.96Zm-55.99 65.98c-.64-1.66-2.31-6.1-4.11-13.14-1.19-4.65-2.56-10.87-3.61-18.45 1.16.23 2.33.46 3.51.68 1.96.37 3.9.72 5.83 1.06.17 11.66.35 23.33.52 34.99-.57-1.27-1.32-3.03-2.14-5.14Zm45.12-57.65c-.49 2.4-1.01 4.88-2.49 7.67-2.05 3.86-4.78 6.11-6.01 7.09-5.75 4.63-12.12 5.48-18.21 6.3-2.74.37-6.42.66-10.81.45.29-19.07.59-38.14.88-57.2 4.54-.6 8.31-.49 10.94-.27 5.1.44 11.23 1.04 17.03 5.28.86.63 2.3 1.69 3.82 3.47 5.52 6.42 5.62 14.48 5.67 18.84.01 1.27-.01 4.42-.83 8.37Z" fill="#00ac9f" data-color="1"></path>
        <path d="M112.01 85.46c-2.93.53-5.18 2.25-6.48 4.95-.94 1.97-1.41 4.6-1.3 7.28.09 2.22.5 4.09 1.26 5.67 1.55 3.26 4.22 5.03 7.83 5.18 4.63.21 8.03-2.15 9.48-6.57.98-2.99.96-7.17-.04-10.18-1.17-3.48-3.69-5.74-7.07-6.31-.98-.16-2.81-.17-3.69 0Zm3.55 2.76c2.54.67 4.09 2.64 4.77 6.05.22 1.13.22 4.15 0 5.36-.79 4.22-3.19 6.41-6.82 6.24-1.68-.08-2.83-.59-4-1.76-.6-.6-.77-.84-1.18-1.68-.79-1.62-1.11-3.16-1.11-5.48s.31-3.85 1.1-5.47c.41-.84.58-1.07 1.19-1.69.6-.6.85-.79 1.53-1.11.45-.22 1.04-.43 1.3-.48s.55-.11.65-.13c.35-.09 2.08.03 2.59.16Z" fill="#ffffff" data-color="2"></path>
        <path d="M135.08 85.42c-1.78.28-3.55 1.12-4.79 2.28-2.34 2.21-3.57 6.24-3.22 10.59.47 5.92 3.34 9.5 8.18 10.19 1.36.19 3.37.08 4.79-.27.85-.21 2.84-.92 3.01-1.06.09-.09.03-.3-.24-1.08-.43-1.2-.48-1.3-.68-1.3-.09 0-.6.16-1.15.35-1.81.63-2.35.73-4 .73-1.3 0-1.54-.02-2.12-.19-2.45-.78-3.91-2.57-4.6-5.67-.25-1.14-.31-3.96-.12-5.31.51-3.45 2.22-5.71 4.89-6.45.43-.11.88-.15 1.99-.15 1.67 0 2.3.1 3.98.69.62.22 1.18.37 1.24.35.06-.02.29-.54.48-1.17.33-.99.36-1.15.25-1.25-.17-.16-2.29-.87-3.25-1.1-.88-.2-3.75-.3-4.66-.16Z" fill="#ffffff" data-color="2"></path>
        <path d="M63.57 85.78c-.03.06-.03 5.12-.03 11.25l.03 11.14h2.85l.03-4.12.02-4.11 2.96-.04c3.24-.03 3.91-.11 5.38-.6 2.55-.84 4.14-2.5 4.63-4.89.14-.69.16-1.05.13-2.09-.05-1.43-.18-2.06-.67-3.07-.92-1.9-2.68-3.08-5.16-3.45-1.15-.17-10.11-.19-10.17-.03Zm9.6 2.62c1.73.33 2.94 1.43 3.32 3.03.16.67.12 2.06-.08 2.69-.35 1.13-1.07 1.91-2.22 2.44-1.3.61-2.54.78-5.8.78h-1.93v-9.07h3.01c2.31 0 3.18.03 3.7.13Z" fill="#ffffff" data-color="2"></path>
        <path d="M84.01 85.79c-.08.1-.1 2.84-.09 11.25l.03 11.13h2.85l.03-4.56.02-4.57 2.36.03c2.16.03 2.4.05 2.95.23 1.37.45 2.39 1.26 3.18 2.52.22.36.93 1.87 1.56 3.34.64 1.48 1.2 2.76 1.26 2.86.09.17.16.18 1.52.18 1.2 0 1.43-.02 1.48-.13.04-.14-2.05-5.23-2.63-6.39-.67-1.36-1.57-2.41-2.68-3.14-.3-.21-.53-.41-.51-.47s.36-.24.77-.41c1.94-.83 3.26-2.14 3.8-3.79.22-.72.31-2.36.16-3.23-.42-2.4-1.96-3.99-4.54-4.69l-.86-.23-5.28-.03c-4.47-.03-5.29 0-5.37.1Zm9.92 2.56c.76.12 1.72.59 2.2 1.08.79.79 1.18 2.12 1 3.34-.26 1.72-1.42 2.83-3.49 3.37-.64.16-1 .18-3.75.22l-3.05.04v-8.14h3.26c1.81 0 3.51.04 3.82.09Z" fill="#ffffff" data-color="2"></path>
        <path d="M147.87 85.78c-.03.06-.03 5.12-.03 11.25l.03 11.14h15.2l.03-1.2c.02-.91 0-1.22-.09-1.28-.06-.03-2.84-.07-6.18-.07h-6.07v-7.69l4.91-.02 4.9-.03v-2.5l-4.9-.03-4.91-.02v-7.08l5.8-.02 5.81-.03.33-1.08c.17-.6.31-1.16.3-1.25-.03-.17-.1-.17-7.57-.2-5.99-.02-7.55 0-7.58.09Z" fill="#ffffff" data-color="2"></path>
        <path d="M167.54 85.77c-.09.09-.11 2.44-.11 11.17 0 6.09.03 11.12.07 11.18.06.08.41.1 1.45.09l1.37-.03.03-4.56.02-4.55h2.08c2.43 0 3.03.1 4.13.62.92.44 1.86 1.35 2.41 2.33.21.36.91 1.9 1.56 3.41l1.18 2.75 1.49.03c1.45.02 1.49.02 1.49-.16 0-.22-2.42-5.99-2.79-6.65-.75-1.34-1.48-2.16-2.47-2.81-.35-.22-.6-.45-.59-.5s.4-.26.85-.45c1.63-.71 2.73-1.67 3.36-2.94.48-.97.63-1.62.62-2.76 0-1.17-.18-2.03-.63-2.94-.77-1.58-2.19-2.61-4.29-3.13-.49-.12-1.34-.15-5.85-.17-4.15-.03-5.29 0-5.37.07Zm10.1 2.62c1.7.36 2.76 1.46 3.02 3.11.28 1.78-.54 3.38-2.12 4.15-1.26.62-2.14.74-5.52.74h-2.66v-4c0-2.2.03-4.03.06-4.06.03-.03 1.54-.06 3.34-.06 2.5 0 3.43.03 3.87.12Z" fill="#ffffff" data-color="2"></path>
        <path d="M196.22 85.78c-.05.06-.31.85-.59 1.74-.8 2.63-1.42 4.23-4.74 12.49-1.74 4.29-3.16 7.9-3.16 8.01v.2l1.48-.02 1.48-.03 1-2.49 1-2.48 5.27.02 5.26.03.96 2.38c.53 1.3.99 2.43 1.03 2.48.1.16 2.88.16 2.94 0 .03-.06-1.47-3.87-3.31-8.46-3.14-7.82-4.08-10.36-4.98-13.41l-.16-.52-1.69-.03c-1.29-.02-1.72 0-1.78.09Zm2.18 4.78c.48 1.92 1.09 3.54 3.19 8.61l.56 1.36h-4.19c-2.3 0-4.18-.02-4.18-.04s.54-1.37 1.22-3c1.31-3.19 1.99-5.08 2.45-6.84.42-1.61.56-1.62.95-.1Z" fill="#ffffff" data-color="2"></path>
        <path d="M212.22 85.78c-.03.06-.03 5.12-.03 11.25l.03 11.14h2.85v-7.77c0-5.84-.03-8.09-.12-9.05-.08-.94-.09-1.31-.02-1.38.15-.15.29.06.7 1.06.2.5 1.3 3.02 2.44 5.61 2.2 5.01 2.58 5.92 2.96 7.08.33 1.03.34 1.04 1.72 1.04.79 0 1.18-.03 1.28-.11.08-.05.21-.32.29-.58.41-1.24 1.13-2.99 2.94-7.04 1.09-2.43 2.22-5.01 2.51-5.74.51-1.26.72-1.57.84-1.26.03.08 0 .48-.05.89-.08.55-.1 3.01-.1 9.01v8.25l1.37.03c1.05.02 1.39 0 1.45-.09.03-.06.07-5.1.07-11.18 0-9.29-.02-11.08-.12-11.17-.08-.07-.71-.1-2.08-.08-1.65.03-1.98.04-2.03.16-.03.07-.24.62-.47 1.22-.22.6-1.34 3.25-2.5 5.87-2.16 4.91-2.51 5.77-2.99 7.32-.22.69-.31.89-.41.86-.1-.02-.33-.56-.76-1.84s-1.24-3.25-2.74-6.65c-1.17-2.66-2.26-5.23-2.44-5.7s-.35-.95-.4-1.06q-.09-.19-2.12-.19c-1.55 0-2.05.03-2.07.1Z" fill="#ffffff" data-color="2"></path>
        <path d="M64.14 114.66c-.22.16-.26.64-.05.85s.7.17.86-.08a.563.563 0 0 0-.81-.77Z" fill="#ffffff" data-color="2"></path>
        <path d="M91.74 114.68c-.19.21-.19.66 0 .84.1.09.25.13.46.11.7-.06.64-1.11-.07-1.11-.13 0-.3.07-.38.16Z" fill="#ffffff" data-color="2"></path>
        <path d="M224.01 114.7c-.35.35-.11.95.38.95.35 0 .57-.22.57-.59 0-.48-.6-.71-.95-.36Z" fill="#ffffff" data-color="2"></path>
        <path d="M134.87 116.21c0 .88-.03 1.6-.08 1.6s-.26-.09-.49-.19c-.62-.29-1.88-.28-2.51 0-1.15.52-1.74 1.92-1.51 3.56.12.84.32 1.32.75 1.79.47.53.98.73 1.76.74s1.3-.21 1.77-.73c.17-.18.33-.34.35-.34s.04.16.04.34c0 .51.07.61.4.61h.29v-8.98h-.78v1.6Zm-.53 2.24.55.25-.05 1.21c-.06 1.5-.2 2-.69 2.5-.67.69-1.64.75-2.34.13-.89-.78-1-2.85-.2-3.77.61-.7 1.63-.82 2.73-.33Z" fill="#ffffff" data-color="2"></path>
        <path d="M165.01 116.21c0 .88-.03 1.6-.08 1.6s-.26-.09-.49-.19c-.34-.16-.59-.19-1.24-.2-.92 0-1.36.15-1.93.64-.67.59-1.02 1.91-.85 3.14.22 1.63 1.1 2.5 2.51 2.5.79 0 1.14-.13 1.73-.68.41-.39.43-.4.43-.19 0 .12.03.35.05.49.05.23.09.27.35.27h.29v-8.98H165v1.6Zm-.52 2.24.55.25-.04 1.25c-.04 1.01-.09 1.36-.23 1.75-.54 1.43-2.29 1.71-3.09.51-.64-.95-.6-2.66.09-3.44.61-.7 1.63-.82 2.73-.33Z" fill="#ffffff" data-color="2"></path>
        <path d="M201.55 118.62c0 2.2.03 4.13.05 4.28.11.56.79.97 1.36.82.25-.06.28-.17.12-.51-.06-.14-.16-.22-.29-.22-.11 0-.24-.08-.29-.16-.05-.11-.09-1.58-.09-4.19v-4.03h-.86v4.01Z" fill="#ffffff" data-color="2"></path>
        <path d="m86.01 115.78-.29.12v1.65h-.69v.69h.69v2.09c0 1.16.04 2.24.09 2.42.19.67.92 1.1 1.63.98.51-.09.55-.14.4-.5-.13-.31-.15-.32-.47-.27-.29.04-.37.03-.56-.16l-.22-.22v-4.33h1.47v-.69h-1.47v-.95c0-1.05 0-1.07-.58-.82Z" fill="#ffffff" data-color="2"></path>
        <path d="m97.15 115.75-.28.1-.03.83-.03.83-.32.03c-.32.03-.33.03-.33.36s0 .34.33.36l.32.03.04 2.29c.03 1.6.08 2.35.15 2.48.28.47.99.78 1.6.67.4-.07.48-.21.33-.57-.1-.24-.14-.26-.43-.21-.27.04-.36.02-.57-.16l-.25-.22v-4.29l.76-.03.75-.03v-.67l-.75-.03-.76-.03-.03-.93c-.03-.99-.02-.98-.51-.82Z" fill="#ffffff" data-color="2"></path>
        <path d="m112.15 115.77-.3.11-.03.83-.03.84h-.34q-.35 0-.35.35v.35h.69v2c0 2.1.05 2.55.32 2.91.33.43.59.55 1.18.56.72 0 .83-.09.63-.52-.13-.27-.18-.3-.38-.25-.3.07-.67-.1-.79-.35-.06-.14-.1-.93-.1-2.28v-2.07h1.55v-.68l-.75-.03-.76-.03-.03-.93c-.03-1-.02-.99-.54-.8Z" fill="#ffffff" data-color="2"></path>
        <path d="m187.67 115.75-.28.1-.03.83-.03.83-.32.03c-.32.03-.33.03-.33.36s0 .34.33.36l.32.03.04 2.29c.03 1.6.08 2.35.15 2.48.28.47.99.78 1.6.67.4-.07.48-.21.33-.57-.1-.24-.14-.26-.43-.21-.27.04-.36.02-.57-.16l-.25-.22v-4.29l.76-.03.75-.03v-.67l-.75-.03-.76-.03-.03-.93c-.03-.99-.02-.98-.51-.82Z" fill="#ffffff" data-color="2"></path>
        <path d="M70.83 117.51c-.28.09-.55.28-.84.55-.22.22-.43.39-.46.36s-.05-.23-.05-.47v-.41h-.69v6.05h.86v-1.68c0-1.91.08-2.38.46-2.95.37-.54.8-.76 1.55-.76.7 0 .97.16 1.28.79.21.41.22.48.24 2.51l.03 2.1h.76v-2.14c0-2.39-.06-2.76-.53-3.33a2.48 2.48 0 0 0-.62-.51c-.48-.24-1.42-.29-2-.1Z" fill="#ffffff" data-color="2"></path>
        <path d="M78.66 117.53c-.84.3-1.19.84-1.12 1.7.04.54.3.93.74 1.16.18.09.79.29 1.36.44 1.15.32 1.6.62 1.6 1.07 0 .35-.22.73-.54.89-.4.22-1.81.2-2.55-.04l-.54-.17-.08.2c-.17.45-.15.5.28.67.67.25 1.86.36 2.55.25.65-.12 1.23-.41 1.43-.73.22-.34.33-.95.24-1.36-.17-.76-.57-1.04-2.1-1.45-1.27-.35-1.54-.54-1.54-1.08 0-.31.04-.41.26-.6.15-.12.41-.24.58-.28.4-.08 1.43.02 1.94.17l.41.13.09-.27c.16-.43.12-.48-.4-.64-.77-.22-2.04-.25-2.6-.05Z" fill="#ffffff" data-color="2"></path>
        <path d="M119.02 117.5c-1.37.43-2.05 1.63-1.92 3.4.09 1.26.6 2.13 1.5 2.58.42.2.6.23 1.23.23.86 0 1.33-.17 1.88-.67.55-.49.82-1.21.87-2.26.06-1.41-.33-2.38-1.18-2.95-.64-.43-1.62-.57-2.38-.33Zm1.45.75c.46.12.86.52 1.11 1.05.16.38.2.6.2 1.29 0 .75-.02.88-.25 1.34-.73 1.41-2.62 1.41-3.34 0-.26-.48-.32-1.74-.12-2.4.3-1.05 1.3-1.58 2.41-1.27Z" fill="#ffffff" data-color="2"></path>
        <path d="M141.04 117.47c-.82.21-1.55.93-1.81 1.84-.19.63-.16 1.89.04 2.58.22.72.76 1.34 1.4 1.62.37.16.6.21 1.24.2.65 0 1.69-.17 1.82-.3.08-.08-.16-.67-.27-.67-.06 0-.38.06-.71.14-1.06.25-1.98 0-2.4-.65-.19-.29-.42-.87-.36-.92 0 0 .66-.12 1.44-.25 2.21-.35 2.71-.68 2.71-1.81s-.75-1.77-2.1-1.82c-.36-.02-.81 0-1 .06Zm1.54.8c.85.36.99 1.35.25 1.73-.13.06-.73.2-1.36.3-.61.1-1.23.21-1.36.23-.23.05-.23.04-.18-.33.14-1.01.49-1.62 1.11-1.89.41-.19 1.15-.21 1.54-.04Z" fill="#ffffff" data-color="2"></path>
        <path d="M153.54 117.53c-.65.23-1.05.6-1.38 1.24-.68 1.35-.48 3.27.43 4.22.86.89 2.54 1 3.59.24 1.31-.94 1.52-3.7.37-5.01-.65-.73-2.01-1.04-3.01-.68Zm1.7.76c.41.16.76.5.99.94.25.48.3 1.65.11 2.32-.35 1.22-1.59 1.76-2.71 1.18-.41-.21-.57-.39-.79-.9-.41-.93-.29-2.36.29-3.04.48-.6 1.39-.81 2.12-.51Z" fill="#ffffff" data-color="2"></path>
        <path d="M171.19 117.47c-.52.13-1.13.56-1.41 1.01-.7 1.1-.73 3.02-.06 4.08.57.91 1.72 1.36 2.87 1.12 1.31-.27 2.06-1.22 2.16-2.78.15-2.07-.86-3.41-2.61-3.49-.33-.02-.76 0-.95.06Zm1.43.78c.73.25 1.15.84 1.29 1.81.15 1.01-.14 1.97-.73 2.49-.78.68-2.19.5-2.72-.35-.63-1.03-.51-2.83.25-3.56.44-.42 1.27-.59 1.91-.38Z" fill="#ffffff" data-color="2"></path>
        <path d="M180.29 117.49c-.48.18-.88.46-1.11.76-.24.33-.35.22-.35-.34 0-.35 0-.36-.3-.36h-.3v6.05h.78v-1.54c0-1.63.09-2.37.35-2.87.58-1.11 2.06-1.4 2.79-.53.12.15.27.41.32.6.04.17.09 1.21.09 2.32v2.01h.79l-.03-2.36c-.03-2.1-.04-2.38-.19-2.68-.21-.42-.56-.77-.98-.97-.42-.21-1.43-.26-1.85-.1Z" fill="#ffffff" data-color="2"></path>
        <path d="M194.4 117.54c-.92.32-1.48 1-1.71 2.08-.31 1.46.13 3 1.05 3.63 1.06.73 2.71.61 3.57-.27 1.2-1.24 1.08-4.07-.22-5.06-.7-.54-1.79-.69-2.68-.38Zm1.75.78c.81.36 1.22 1.24 1.15 2.47-.1 1.56-1.05 2.41-2.38 2.12-.94-.21-1.49-1.06-1.49-2.33 0-1.48.76-2.42 1.94-2.42.24 0 .59.08.78.16Z" fill="#ffffff" data-color="2"></path>
        <path d="M207.87 117.53c-.65.23-1.05.6-1.38 1.24-.67 1.34-.48 3.3.42 4.22.89.89 2.55 1 3.61.24 1.3-.93 1.5-3.71.36-5.01-.65-.73-2.01-1.04-3.01-.68Zm1.7.76c.79.32 1.23 1.13 1.23 2.23 0 1.29-.47 2.09-1.37 2.36-.96.28-1.82-.11-2.25-1-.2-.42-.22-.59-.22-1.35 0-.94.1-1.27.53-1.77.47-.55 1.38-.76 2.08-.47Z" fill="#ffffff" data-color="2"></path>
        <path d="M216.65 117.5c-1.4.37-2.16 1.88-1.89 3.73.23 1.62 1.11 2.48 2.51 2.48.79 0 1.14-.13 1.74-.69l.45-.41-.05.85c-.08 1.36-.46 1.9-1.49 2.13-.49.11-1.4.05-2.01-.13-.44-.14-.47-.12-.6.29-.09.26-.08.29.1.36 1.11.41 2.65.43 3.46.03.45-.22.9-.73 1.08-1.21.16-.43.17-.68.17-3.62v-3.15l-.58-.26c-1.12-.5-2.02-.62-2.89-.39Zm2.17.95.55.25-.04 1.25c-.04 1.01-.09 1.36-.23 1.75-.54 1.39-2.2 1.7-3.06.57-.72-.94-.62-2.89.18-3.64.59-.56 1.61-.63 2.6-.19Z" fill="#ffffff" data-color="2"></path>
        <path d="M229.97 117.44c-.12.02-.42.1-.67.17-.38.1-.45.16-.41.29.16.6.12.58.88.38.88-.23 1.76-.12 2.2.28.26.22.5.79.5 1.17v.33h-1.22c-1.47 0-1.86.09-2.37.54-.45.4-.6.81-.54 1.55.04.66.35 1.11.91 1.38.34.16.55.2 1.15.2.83 0 1.3-.16 1.83-.62.16-.15.33-.25.36-.22.03.03.05.21.05.39q0 .33.35.33h.35v-1.99c0-2.21-.07-2.67-.46-3.26-.41-.6-1.05-.92-1.99-.94-.39 0-.8 0-.92.03Zm2.48 3.77c-.05.49-.29 1.05-.54 1.27-.66.58-1.8.67-2.36.2-.66-.54-.42-1.6.39-1.85.14-.03.77-.08 1.41-.08h1.16l-.05.46Z" fill="#ffffff" data-color="2"></path>
        <path d="M63.52 117.89v.35h.69v5.36h.86v-6.05h-1.55v.35Z" fill="#ffffff" data-color="2"></path>
        <path d="M91.16 117.89v.35h.69v5.36h.86v-6.05h-1.55v.35Z" fill="#ffffff" data-color="2"></path>
        <path d="M102.58 119.9c.03 2.24.03 2.38.22 2.71.23.44.69.85 1.12.99.44.16 1.46.14 1.86-.03.18-.08.52-.31.75-.54.47-.43.53-.41.53.22 0 .33 0 .34.3.34h.3v-6.05h-.76l-.03 1.83c-.03 1.64-.06 1.89-.23 2.33-.47 1.2-1.86 1.65-2.76.88-.45-.37-.53-.84-.53-3.07v-1.97h-.79l.03 2.35Z" fill="#ffffff" data-color="2"></path>
        <path d="M223.4 117.89v.35h.69v5.36h.86v-6.05h-1.55v.35Z" fill="#ffffff" data-color="2"></path>
    </g>
</svg>