<svg id="odonto" xmlns="http://www.w3.org/2000/svg" width="53.814" height="53.825" viewBox="0 0 53.814 53.825">
  <path id="Caminho_214" data-name="Caminho 214" d="M52.9,12.438a1.691,1.691,0,0,0-.021-3.019,10.522,10.522,0,0,1-5.508-6.868l-.32-1.277a1.682,1.682,0,0,0-3.264,0l-.32,1.278a10.6,10.6,0,0,1-.351,1.126,12.578,12.578,0,0,0-12,3.686A12.64,12.64,0,0,0,9.251,16a21.6,21.6,0,0,0,3.438,11.705A25.966,25.966,0,0,1,16.82,41.774a8.7,8.7,0,0,0,8.687,8.687h1.405a1.683,1.683,0,0,0,1.682-1.682V39.527a2.523,2.523,0,0,1,5.046,0v9.251a1.683,1.683,0,0,0,1.682,1.682h1.405a8.7,8.7,0,0,0,8.687-8.687,25.966,25.966,0,0,1,4.131-14.066A21.6,21.6,0,0,0,52.984,16a12.618,12.618,0,0,0-.458-3.356c.12-.066.235-.142.358-.2Zm-3.886-1.5a13.881,13.881,0,0,0-3.593,4.223,13.852,13.852,0,0,0-3.594-4.223A13.86,13.86,0,0,0,45.414,6.71,13.9,13.9,0,0,0,49.009,10.933ZM46.716,25.889A29.321,29.321,0,0,0,42.05,41.774,5.331,5.331,0,0,1,37,47.09V39.527a5.887,5.887,0,0,0-11.774,0V47.09a5.33,5.33,0,0,1-5.046-5.316,29.323,29.323,0,0,0-4.665-15.885A18.243,18.243,0,0,1,12.615,16a9.274,9.274,0,0,1,16.991-5.145l.111.167a1.682,1.682,0,0,0,2.8,0l.111-.167a9.2,9.2,0,0,1,8.661-4.076,10.54,10.54,0,0,1-3.343,2.642,1.682,1.682,0,0,0-.009,3.017,10.516,10.516,0,0,1,5.532,6.893l.313,1.258a1.682,1.682,0,0,0,1.63,1.277h0a1.682,1.682,0,0,0,1.632-1.272l.324-1.289a10.51,10.51,0,0,1,2.2-4.251,9.371,9.371,0,0,1,.05.949A18.234,18.234,0,0,1,46.716,25.889ZM14.3,42.276a10.633,10.633,0,0,1-4.769-6.217l-.342-1.2a1.682,1.682,0,0,0-3.235,0l-.342,1.2a10.654,10.654,0,0,1-4.8,6.234A1.682,1.682,0,0,0,.82,45.177a10.628,10.628,0,0,1,4.8,6.25L5.951,52.6a1.682,1.682,0,0,0,1.616,1.223h0a1.681,1.681,0,0,0,1.616-1.219l.347-1.211a10.638,10.638,0,0,1,4.779-6.214l.016-.009a1.681,1.681,0,0,0,.8-1.449A1.705,1.705,0,0,0,14.3,42.276ZM7.571,47.429a13.925,13.925,0,0,0-3.026-3.7,13.949,13.949,0,0,0,3.024-3.7,13.942,13.942,0,0,0,3.025,3.7A13.958,13.958,0,0,0,7.571,47.429Z" transform="translate(0)" fill="#fff"/>
  <path id="Caminho_215" data-name="Caminho 215" d="M39.467,17.12a9.6,9.6,0,0,1-7.161,0,1.682,1.682,0,1,0-1.25,3.124,12.951,12.951,0,0,0,9.66,0,1.682,1.682,0,0,0-1.249-3.124Z" transform="translate(-4.77 -2.703)" fill="#fff"/>
</svg>