<svg xmlns="http://www.w3.org/2000/svg" width="55" height="55" viewBox="0 0 55 55">
  <g id="play" transform="translate(1540 -4358)">
    <g id="Caminho_4504" data-name="Caminho 4504" transform="translate(-1540 4358)" fill="none">
      <path d="M27.5,0A27.5,27.5,0,1,1,0,27.5,27.5,27.5,0,0,1,27.5,0Z" stroke="none"/>
      <path d="M 27.5 3 C 24.19120025634766 3 20.98297119140625 3.647361755371094 17.96442031860352 4.924098968505859 C 15.04732894897461 6.157920837402344 12.4268913269043 7.924880981445312 10.17588043212891 10.17588043212891 C 7.924880981445312 12.4268913269043 6.157920837402344 15.04732894897461 4.924098968505859 17.96442031860352 C 3.647361755371094 20.98297119140625 3 24.19120025634766 3 27.5 C 3 30.80879974365234 3.647361755371094 34.01702880859375 4.924098968505859 37.03557968139648 C 6.157920837402344 39.95267105102539 7.924880981445312 42.5731086730957 10.17588043212891 44.82411956787109 C 12.4268913269043 47.07511901855469 15.04732894897461 48.84207916259766 17.96442031860352 50.07590103149414 C 20.98297119140625 51.35263824462891 24.19120025634766 52 27.5 52 C 30.80879974365234 52 34.01702880859375 51.35263824462891 37.03557968139648 50.07590103149414 C 39.95267105102539 48.84207916259766 42.5731086730957 47.07511901855469 44.82411956787109 44.82411956787109 C 47.07511901855469 42.5731086730957 48.84207916259766 39.95267105102539 50.07590103149414 37.03557968139648 C 51.35263824462891 34.01702880859375 52 30.80879974365234 52 27.5 C 52 24.19120025634766 51.35263824462891 20.98297119140625 50.07590103149414 17.96442031860352 C 48.84207916259766 15.04732894897461 47.07511901855469 12.4268913269043 44.82411956787109 10.17588043212891 C 42.5731086730957 7.924880981445312 39.95267105102539 6.157920837402344 37.03557968139648 4.924098968505859 C 34.01702880859375 3.647361755371094 30.80879974365234 3 27.5 3 M 27.5 0 C 42.68782806396484 0 55 12.31216812133789 55 27.5 C 55 42.68782806396484 42.68782806396484 55 27.5 55 C 12.31216812133789 55 0 42.68782806396484 0 27.5 C 0 12.31216812133789 12.31216812133789 0 27.5 0 Z" stroke="none" fill="#fff"/>
    </g>
    <path id="toque" d="M20.463,7.713l-9.1-6.677A5.317,5.317,0,0,0,2.9,5.323V18.677a5.311,5.311,0,0,0,8.46,4.287l9.105-6.677a5.315,5.315,0,0,0,0-8.574Zm-1.774,6.155-9.1,6.677A2.317,2.317,0,0,1,5.9,18.677V5.323A2.276,2.276,0,0,1,7.17,3.257,2.328,2.328,0,0,1,8.223,3a2.3,2.3,0,0,1,1.362.455l9.1,6.677a2.316,2.316,0,0,1,0,3.736Z" transform="translate(-1523.9 4373.995)" fill="#fff"/>
  </g>
</svg>
