<svg xmlns="http://www.w3.org/2000/svg" width="50" height="50" viewBox="0 0 50 50">
  <g id="telefone" transform="translate(-2075 -409)">
    <circle id="Elipse_5" data-name="Elipse 5" cx="25" cy="25" r="25" transform="translate(2075 409)" fill="#fff"/>
    <path id="virar-telefone_1_" data-name="virar-telefone (1)" d="M2.109,2.232,3.364,1.138a4.057,4.057,0,0,1,5.7.092l2.384,2.58a4.031,4.031,0,0,1,.012,5.7L11,9.971a13.337,13.337,0,0,0,6.633,6.656l.472-.461a4.032,4.032,0,0,1,5.654-.035l2.672,2.476a4.016,4.016,0,0,1,1.186,2.856,3.954,3.954,0,0,1-1.129,2.8s-1.071,1.232-1.094,1.255a7.363,7.363,0,0,1-5.251,2.142C11.483,27.66-.01,16.167-.01,7.507A7.363,7.363,0,0,1,2.132,2.255ZM20.12,24.182A3.968,3.968,0,0,0,22.9,23.088s1.059-1.221,1.094-1.244a.578.578,0,0,0,.173-.4.524.524,0,0,0-.127-.357l-2.672-2.476a.578.578,0,0,0-.4-.173.56.56,0,0,0-.4.173l-1.3,1.29a1.735,1.735,0,0,1-1.831.38A17.075,17.075,0,0,1,7.372,10.236,1.725,1.725,0,0,1,7.74,8.382L9.03,7.069a.578.578,0,0,0,.173-.4.619.619,0,0,0-.219-.449L6.6,3.637a.591.591,0,0,0-.818,0C5.76,3.66,4.539,4.731,4.539,4.731A3.948,3.948,0,0,0,3.445,7.507c0,7.37,10.353,16.7,16.7,16.7Z" transform="translate(2086.01 419.987)" fill="#0FBCB9"/>
  </g>
</svg>
