<svg xmlns="http://www.w3.org/2000/svg" xmlns:xlink="http://www.w3.org/1999/xlink" width="44" height="44" viewBox="0 0 44 44">
  <defs>
    <linearGradient id="linear-gradient" x1="0.5" x2="0.5" y2="1" gradientUnits="objectBoundingBox">
      <stop offset="1" stop-color="#0FBCB9"/>
    </linearGradient>
  </defs>
  <g id="whats" transform="translate(-1015 -7397)">
    <g id="Grupo_392" data-name="Grupo 392" transform="translate(1015.436 7397)">
      <circle id="Elipse_6" data-name="Elipse 6" cx="22" cy="22" r="22" transform="translate(-0.436 0)" fill="url(#linear-gradient)"/>
    </g>
    <path id="_73c0482f37cd99b2b06cd7d3eba8c43e" data-name="73c0482f37cd99b2b06cd7d3eba8c43e" d="M18.115,15.248c-.221-.11-1.656-.773-1.876-.883a.52.52,0,0,0-.662.11c-.221.221-.662.883-.883,1.1-.11.221-.331.221-.552.11a9.024,9.024,0,0,1-2.208-1.325,12.706,12.706,0,0,1-1.545-1.876.485.485,0,0,1,.11-.552c.11-.11.221-.331.442-.442a.837.837,0,0,0,.221-.442.336.336,0,0,0,0-.442,19.621,19.621,0,0,1-.883-1.987c-.11-.773-.331-.773-.552-.773H9.175a1.259,1.259,0,0,0-.662.331A3.177,3.177,0,0,0,7.519,10.5a5.782,5.782,0,0,0,1.1,2.87,11.768,11.768,0,0,0,4.636,4.084,8.651,8.651,0,0,0,1.545.552,3.153,3.153,0,0,0,1.766.11,2.86,2.86,0,0,0,1.876-1.325,1.846,1.846,0,0,0,.11-1.325l-.442-.221M20.875,5.2A11,11,0,0,0,3.545,18.449L2,24.079l5.85-1.545a10.906,10.906,0,0,0,16.115-9.6A10.751,10.751,0,0,0,20.875,5.2m-2.98,15.453a9.264,9.264,0,0,1-4.857,1.435A9.68,9.68,0,0,1,8.4,20.878l-.331-.221-3.422.883.883-3.311L5.311,17.9A9.268,9.268,0,0,1,8.292,5.2a8.979,8.979,0,0,1,12.473,2.87,9.108,9.108,0,0,1-2.87,12.583" transform="translate(1024.014 7405.973)" fill="#131313"/>
  </g>
</svg>
